STARTFONT 2.1
COMMENT Exported by Fony v1.4.7
FONT 8X13TG
SIZE 13 96 96
FONTBOUNDINGBOX 8 12 0 -11
STARTPROPERTIES 6
COPYRIGHT "Tangar @ http://tangar.info for TomeNET @ http://tomenet.eu"
RESOLUTION_X 96
RESOLUTION_Y 96
FONT_ASCENT 2
FONT_DESCENT 11
DEFAULT_CHAR 31
ENDPROPERTIES
CHARS 256
STARTCHAR 000
ENCODING 0
SWIDTH 576 0
DWIDTH 8 0
BBX 8 13 0 -11
BITMAP
81
42
42
24
24
18
08
18
24
24
42
42
81
ENDCHAR
STARTCHAR 001
ENCODING 1
SWIDTH 576 0
DWIDTH 8 0
BBX 1 1 3 -10
BITMAP
80
ENDCHAR
STARTCHAR 002
ENCODING 2
SWIDTH 576 0
DWIDTH 8 0
BBX 8 13 0 -11
BITMAP
FF
FF
FF
FF
FF
FF
FF
FF
FF
FF
FF
FF
FF
ENDCHAR
STARTCHAR 003
ENCODING 3
SWIDTH 576 0
DWIDTH 8 0
BBX 2 1 2 -9
BITMAP
C0
ENDCHAR
STARTCHAR 004
ENCODING 4
SWIDTH 576 0
DWIDTH 8 0
BBX 3 3 2 -10
BITMAP
40
E0
40
ENDCHAR
STARTCHAR 005
ENCODING 5
SWIDTH 576 0
DWIDTH 8 0
BBX 2 2 3 -9
BITMAP
80
40
ENDCHAR
STARTCHAR 006
ENCODING 6
SWIDTH 576 0
DWIDTH 8 0
BBX 3 3 2 -9
BITMAP
40
A0
40
ENDCHAR
STARTCHAR 007
ENCODING 7
SWIDTH 576 0
DWIDTH 8 0
BBX 6 1 1 -9
BITMAP
EC
ENDCHAR
STARTCHAR 008
ENCODING 8
SWIDTH 576 0
DWIDTH 8 0
BBX 8 3 0 -6
BITMAP
44
AA
11
ENDCHAR
STARTCHAR 009
ENCODING 9
SWIDTH 576 0
DWIDTH 8 0
BBX 5 3 2 -7
BITMAP
88
50
20
ENDCHAR
STARTCHAR 010
ENCODING 10
SWIDTH 576 0
DWIDTH 8 0
BBX 8 12 0 -11
BITMAP
DF
DF
DF
00
FB
FB
FB
00
EF
EF
EF
EF
ENDCHAR
STARTCHAR 011
ENCODING 11
SWIDTH 576 0
DWIDTH 8 0
BBX 8 12 0 -11
BITMAP
FB
FB
00
EF
EF
EF
00
FB
FB
00
EF
EF
ENDCHAR
STARTCHAR 012
ENCODING 12
SWIDTH 576 0
DWIDTH 8 0
BBX 8 12 0 -11
BITMAP
F7
F5
00
EF
AF
EF
00
FB
00
EF
AF
EF
ENDCHAR
STARTCHAR 013
ENCODING 13
SWIDTH 576 0
DWIDTH 8 0
BBX 8 13 0 -11
BITMAP
3C
66
42
A5
99
A5
3C
18
24
BD
DB
E7
99
ENDCHAR
STARTCHAR 014
ENCODING 14
SWIDTH 576 0
DWIDTH 8 0
BBX 8 13 0 -11
BITMAP
04
06
0E
4B
EF
BF
F7
EB
DD
BE
6E
5F
FF
ENDCHAR
STARTCHAR 015
ENCODING 15
SWIDTH 576 0
DWIDTH 8 0
BBX 8 11 0 -11
BITMAP
0C
1E
3A
FF
BD
EA
D7
BF
7F
FF
FF
ENDCHAR
STARTCHAR 016
ENCODING 16
SWIDTH 576 0
DWIDTH 8 0
BBX 8 13 0 -11
BITMAP
FF
A5
FF
91
FF
C5
FF
91
FF
C5
FF
91
FF
ENDCHAR
STARTCHAR 017
ENCODING 17
SWIDTH 576 0
DWIDTH 8 0
BBX 8 13 0 -11
BITMAP
FF
A5
C9
91
A3
C5
89
91
A3
C5
89
91
FF
ENDCHAR
STARTCHAR 018
ENCODING 18
SWIDTH 576 0
DWIDTH 8 0
BBX 8 13 0 -11
BITMAP
FF
B1
D1
91
B1
D1
91
91
B1
D1
91
91
FF
ENDCHAR
STARTCHAR 019
ENCODING 19
SWIDTH 576 0
DWIDTH 8 0
BBX 8 13 0 -11
BITMAP
FF
A5
FF
93
FF
81
FF
B9
FF
99
FF
99
FF
ENDCHAR
STARTCHAR 020
ENCODING 20
SWIDTH 576 0
DWIDTH 8 0
BBX 8 13 0 -11
BITMAP
FF
A5
C9
93
FF
81
99
B9
9D
99
BD
99
FF
ENDCHAR
STARTCHAR 021
ENCODING 21
SWIDTH 576 0
DWIDTH 8 0
BBX 8 13 0 -11
BITMAP
FF
B1
D1
91
FF
81
99
B9
9D
99
BD
99
FF
ENDCHAR
STARTCHAR 022
ENCODING 22
SWIDTH 576 0
DWIDTH 8 0
BBX 8 13 0 -11
BITMAP
81
42
42
24
24
18
08
18
24
24
42
42
81
ENDCHAR
STARTCHAR 023
ENCODING 23
SWIDTH 576 0
DWIDTH 8 0
BBX 8 13 0 -11
BITMAP
81
42
42
24
24
18
08
18
24
24
42
42
81
ENDCHAR
STARTCHAR 024
ENCODING 24
SWIDTH 576 0
DWIDTH 8 0
BBX 8 13 0 -11
BITMAP
81
42
42
24
24
18
08
18
24
24
42
42
81
ENDCHAR
STARTCHAR 025
ENCODING 25
SWIDTH 576 0
DWIDTH 8 0
BBX 8 13 0 -11
BITMAP
81
42
42
24
24
18
08
18
24
24
42
42
81
ENDCHAR
STARTCHAR 026
ENCODING 26
SWIDTH 576 0
DWIDTH 8 0
BBX 8 13 0 -11
BITMAP
81
42
42
24
24
18
08
18
24
24
42
42
81
ENDCHAR
STARTCHAR 027
ENCODING 27
SWIDTH 576 0
DWIDTH 8 0
BBX 8 13 0 -11
BITMAP
81
42
42
24
24
18
08
18
24
24
42
42
81
ENDCHAR
STARTCHAR 028
ENCODING 28
SWIDTH 576 0
DWIDTH 8 0
BBX 8 13 0 -11
BITMAP
81
42
42
24
24
18
08
18
24
24
42
42
81
ENDCHAR
STARTCHAR 029
ENCODING 29
SWIDTH 576 0
DWIDTH 8 0
BBX 8 13 0 -11
BITMAP
81
42
42
24
24
18
08
18
24
24
42
42
81
ENDCHAR
STARTCHAR 030
ENCODING 30
SWIDTH 576 0
DWIDTH 8 0
BBX 8 13 0 -11
BITMAP
81
42
42
24
24
18
08
18
24
24
42
42
81
ENDCHAR
STARTCHAR 031
ENCODING 31
SWIDTH 576 0
DWIDTH 8 0
BBX 8 13 0 -11
BITMAP
81
42
42
24
24
18
08
18
24
24
42
42
81
ENDCHAR
STARTCHAR 032
ENCODING 32
SWIDTH 576 0
DWIDTH 8 0
BBX 0 0 0 0
BITMAP
ENDCHAR
STARTCHAR 033
ENCODING 33
SWIDTH 576 0
DWIDTH 8 0
BBX 3 10 3 -10
BITMAP
40
E0
E0
A0
E0
E0
C0
00
40
C0
ENDCHAR
STARTCHAR 034
ENCODING 34
SWIDTH 576 0
DWIDTH 8 0
BBX 5 3 2 -4
BITMAP
D8
D8
88
ENDCHAR
STARTCHAR 035
ENCODING 35
SWIDTH 576 0
DWIDTH 8 0
BBX 6 7 1 -8
BITMAP
48
48
FC
48
FC
48
48
ENDCHAR
STARTCHAR 036
ENCODING 36
SWIDTH 576 0
DWIDTH 8 0
BBX 7 12 1 -11
BITMAP
10
7C
D6
90
D0
F8
7C
16
96
DC
78
10
ENDCHAR
STARTCHAR 037
ENCODING 37
SWIDTH 576 0
DWIDTH 8 0
BBX 7 8 0 -9
BITMAP
44
AC
A8
50
30
2E
6A
4E
ENDCHAR
STARTCHAR 038
ENCODING 38
SWIDTH 576 0
DWIDTH 8 0
BBX 8 9 0 -10
BITMAP
3C
44
4C
38
70
C9
8E
C4
7F
ENDCHAR
STARTCHAR 039
ENCODING 39
SWIDTH 576 0
DWIDTH 8 0
BBX 2 4 4 -4
BITMAP
C0
C0
40
80
ENDCHAR
STARTCHAR 040
ENCODING 40
SWIDTH 576 0
DWIDTH 8 0
BBX 3 9 3 -9
BITMAP
20
40
40
80
80
80
40
40
20
ENDCHAR
STARTCHAR 041
ENCODING 41
SWIDTH 576 0
DWIDTH 8 0
BBX 3 9 2 -9
BITMAP
80
40
40
20
20
20
40
40
80
ENDCHAR
STARTCHAR 042
ENCODING 42
SWIDTH 576 0
DWIDTH 8 0
BBX 7 7 0 -9
BITMAP
92
54
38
FE
38
54
92
ENDCHAR
STARTCHAR 043
ENCODING 43
SWIDTH 576 0
DWIDTH 8 0
BBX 6 6 1 -8
BITMAP
30
30
FC
FC
30
30
ENDCHAR
STARTCHAR 044
ENCODING 44
SWIDTH 576 0
DWIDTH 8 0
BBX 2 4 3 -10
BITMAP
C0
C0
40
C0
ENDCHAR
STARTCHAR 045
ENCODING 45
SWIDTH 576 0
DWIDTH 8 0
BBX 6 2 1 -6
BITMAP
FC
FC
ENDCHAR
STARTCHAR 046
ENCODING 46
SWIDTH 576 0
DWIDTH 8 0
BBX 3 3 3 -7
BITMAP
E0
E0
E0
ENDCHAR
STARTCHAR 047
ENCODING 47
SWIDTH 576 0
DWIDTH 8 0
BBX 6 10 1 -10
BITMAP
04
0C
0C
18
18
30
30
60
40
C0
ENDCHAR
STARTCHAR 048
ENCODING 48
SWIDTH 576 0
DWIDTH 8 0
BBX 6 9 1 -9
BITMAP
30
48
84
84
84
84
84
48
30
ENDCHAR
STARTCHAR 049
ENCODING 49
SWIDTH 576 0
DWIDTH 8 0
BBX 4 9 1 -9
BITMAP
20
60
A0
20
20
20
20
20
70
ENDCHAR
STARTCHAR 050
ENCODING 50
SWIDTH 576 0
DWIDTH 8 0
BBX 6 9 1 -9
BITMAP
78
84
84
04
08
30
40
80
FC
ENDCHAR
STARTCHAR 051
ENCODING 51
SWIDTH 576 0
DWIDTH 8 0
BBX 6 9 1 -9
BITMAP
FC
04
08
10
38
04
04
84
78
ENDCHAR
STARTCHAR 052
ENCODING 52
SWIDTH 576 0
DWIDTH 8 0
BBX 6 9 1 -9
BITMAP
08
18
28
48
88
88
FC
08
08
ENDCHAR
STARTCHAR 053
ENCODING 53
SWIDTH 576 0
DWIDTH 8 0
BBX 6 9 1 -9
BITMAP
FC
80
80
B8
C4
04
04
84
78
ENDCHAR
STARTCHAR 054
ENCODING 54
SWIDTH 576 0
DWIDTH 8 0
BBX 6 9 1 -9
BITMAP
38
40
80
80
B8
C4
84
84
78
ENDCHAR
STARTCHAR 055
ENCODING 55
SWIDTH 576 0
DWIDTH 8 0
BBX 6 9 1 -9
BITMAP
FC
04
08
10
10
20
20
40
40
ENDCHAR
STARTCHAR 056
ENCODING 56
SWIDTH 576 0
DWIDTH 8 0
BBX 6 9 1 -9
BITMAP
78
84
84
84
78
84
84
84
78
ENDCHAR
STARTCHAR 057
ENCODING 57
SWIDTH 576 0
DWIDTH 8 0
BBX 6 9 1 -9
BITMAP
78
84
84
8C
74
04
04
08
70
ENDCHAR
STARTCHAR 058
ENCODING 58
SWIDTH 576 0
DWIDTH 8 0
BBX 3 7 2 -8
BITMAP
40
E0
40
00
40
E0
40
ENDCHAR
STARTCHAR 059
ENCODING 59
SWIDTH 576 0
DWIDTH 8 0
BBX 3 9 2 -10
BITMAP
40
E0
40
00
40
E0
60
40
80
ENDCHAR
STARTCHAR 060
ENCODING 60
SWIDTH 576 0
DWIDTH 8 0
BBX 8 13 0 -11
BITMAP
01
03
03
0B
1B
5B
DB
DB
5B
1B
0B
03
01
ENDCHAR
STARTCHAR 061
ENCODING 61
SWIDTH 576 0
DWIDTH 8 0
BBX 6 4 1 -7
BITMAP
FC
00
00
FC
ENDCHAR
STARTCHAR 062
ENCODING 62
SWIDTH 576 0
DWIDTH 8 0
BBX 8 13 0 -11
BITMAP
80
C0
C0
D0
D8
DA
DB
DB
DA
D8
D0
C0
80
ENDCHAR
STARTCHAR 063
ENCODING 63
SWIDTH 576 0
DWIDTH 8 0
BBX 6 12 1 -11
BITMAP
78
CC
84
84
0C
18
30
60
60
00
60
60
ENDCHAR
STARTCHAR 064
ENCODING 64
SWIDTH 576 0
DWIDTH 8 0
BBX 7 13 0 -11
BITMAP
38
38
38
10
38
7C
FE
BA
BA
28
28
28
6C
ENDCHAR
STARTCHAR 065
ENCODING 65
SWIDTH 576 0
DWIDTH 8 0
BBX 6 9 1 -9
BITMAP
30
48
84
84
84
FC
84
84
84
ENDCHAR
STARTCHAR 066
ENCODING 66
SWIDTH 576 0
DWIDTH 8 0
BBX 7 9 0 -9
BITMAP
FC
42
42
42
7C
42
42
42
FC
ENDCHAR
STARTCHAR 067
ENCODING 67
SWIDTH 576 0
DWIDTH 8 0
BBX 6 9 1 -9
BITMAP
78
84
80
80
80
80
80
84
78
ENDCHAR
STARTCHAR 068
ENCODING 68
SWIDTH 576 0
DWIDTH 8 0
BBX 7 9 0 -9
BITMAP
FC
42
42
42
42
42
42
42
FC
ENDCHAR
STARTCHAR 069
ENCODING 69
SWIDTH 576 0
DWIDTH 8 0
BBX 6 9 1 -9
BITMAP
FC
80
80
80
F0
80
80
80
FC
ENDCHAR
STARTCHAR 070
ENCODING 70
SWIDTH 576 0
DWIDTH 8 0
BBX 6 9 1 -9
BITMAP
FC
80
80
80
F0
80
80
80
80
ENDCHAR
STARTCHAR 071
ENCODING 71
SWIDTH 576 0
DWIDTH 8 0
BBX 6 9 1 -9
BITMAP
78
84
80
80
80
9C
84
8C
74
ENDCHAR
STARTCHAR 072
ENCODING 72
SWIDTH 576 0
DWIDTH 8 0
BBX 6 9 1 -9
BITMAP
84
84
84
84
FC
84
84
84
84
ENDCHAR
STARTCHAR 073
ENCODING 73
SWIDTH 576 0
DWIDTH 8 0
BBX 5 9 1 -9
BITMAP
F8
20
20
20
20
20
20
20
F8
ENDCHAR
STARTCHAR 074
ENCODING 74
SWIDTH 576 0
DWIDTH 8 0
BBX 6 9 1 -9
BITMAP
3C
08
08
08
08
08
08
88
70
ENDCHAR
STARTCHAR 075
ENCODING 75
SWIDTH 576 0
DWIDTH 8 0
BBX 6 9 1 -9
BITMAP
84
88
90
A0
C0
A0
90
88
84
ENDCHAR
STARTCHAR 076
ENCODING 76
SWIDTH 576 0
DWIDTH 8 0
BBX 6 9 1 -9
BITMAP
80
80
80
80
80
80
80
80
FC
ENDCHAR
STARTCHAR 077
ENCODING 77
SWIDTH 576 0
DWIDTH 8 0
BBX 7 9 0 -9
BITMAP
82
82
C6
AA
92
92
82
82
82
ENDCHAR
STARTCHAR 078
ENCODING 78
SWIDTH 576 0
DWIDTH 8 0
BBX 6 9 1 -9
BITMAP
84
84
C4
A4
94
8C
84
84
84
ENDCHAR
STARTCHAR 079
ENCODING 79
SWIDTH 576 0
DWIDTH 8 0
BBX 6 9 1 -9
BITMAP
78
84
84
84
84
84
84
84
78
ENDCHAR
STARTCHAR 080
ENCODING 80
SWIDTH 576 0
DWIDTH 8 0
BBX 6 9 1 -9
BITMAP
F8
84
84
84
F8
80
80
80
80
ENDCHAR
STARTCHAR 081
ENCODING 81
SWIDTH 576 0
DWIDTH 8 0
BBX 6 10 1 -10
BITMAP
78
84
84
84
84
84
A4
94
78
04
ENDCHAR
STARTCHAR 082
ENCODING 82
SWIDTH 576 0
DWIDTH 8 0
BBX 6 9 1 -9
BITMAP
F8
84
84
84
F8
A0
90
88
84
ENDCHAR
STARTCHAR 083
ENCODING 83
SWIDTH 576 0
DWIDTH 8 0
BBX 6 9 1 -9
BITMAP
78
84
80
80
78
04
04
84
78
ENDCHAR
STARTCHAR 084
ENCODING 84
SWIDTH 576 0
DWIDTH 8 0
BBX 7 9 0 -9
BITMAP
FE
10
10
10
10
10
10
10
10
ENDCHAR
STARTCHAR 085
ENCODING 85
SWIDTH 576 0
DWIDTH 8 0
BBX 6 9 1 -9
BITMAP
84
84
84
84
84
84
84
84
78
ENDCHAR
STARTCHAR 086
ENCODING 86
SWIDTH 576 0
DWIDTH 8 0
BBX 7 9 0 -9
BITMAP
82
82
44
44
44
28
28
28
10
ENDCHAR
STARTCHAR 087
ENCODING 87
SWIDTH 576 0
DWIDTH 8 0
BBX 7 9 0 -9
BITMAP
82
82
82
82
92
92
92
AA
44
ENDCHAR
STARTCHAR 088
ENCODING 88
SWIDTH 576 0
DWIDTH 8 0
BBX 7 9 0 -9
BITMAP
82
82
44
28
10
28
44
82
82
ENDCHAR
STARTCHAR 089
ENCODING 89
SWIDTH 576 0
DWIDTH 8 0
BBX 7 9 0 -9
BITMAP
82
82
44
28
10
10
10
10
10
ENDCHAR
STARTCHAR 090
ENCODING 90
SWIDTH 576 0
DWIDTH 8 0
BBX 6 9 1 -9
BITMAP
FC
04
08
10
20
40
80
80
FC
ENDCHAR
STARTCHAR 091
ENCODING 91
SWIDTH 576 0
DWIDTH 8 0
BBX 4 9 2 -10
BITMAP
F0
80
80
80
80
80
80
80
F0
ENDCHAR
STARTCHAR 092
ENCODING 92
SWIDTH 576 0
DWIDTH 8 0
BBX 6 10 1 -10
BITMAP
C0
40
60
20
30
10
18
08
0C
04
ENDCHAR
STARTCHAR 093
ENCODING 93
SWIDTH 576 0
DWIDTH 8 0
BBX 4 9 2 -10
BITMAP
F0
10
10
90
10
10
10
10
F0
ENDCHAR
STARTCHAR 094
ENCODING 94
SWIDTH 576 0
DWIDTH 8 0
BBX 7 7 0 -7
BITMAP
10
10
38
38
6C
44
C6
ENDCHAR
STARTCHAR 095
ENCODING 95
SWIDTH 576 0
DWIDTH 8 0
BBX 7 2 0 -10
BITMAP
FE
FE
ENDCHAR
STARTCHAR 096
ENCODING 96
SWIDTH 576 0
DWIDTH 8 0
BBX 3 4 2 -4
BITMAP
C0
C0
40
60
ENDCHAR
STARTCHAR 097
ENCODING 97
SWIDTH 576 0
DWIDTH 8 0
BBX 6 6 1 -9
BITMAP
78
04
7C
84
8C
74
ENDCHAR
STARTCHAR 098
ENCODING 98
SWIDTH 576 0
DWIDTH 8 0
BBX 6 9 1 -9
BITMAP
80
80
80
B8
C4
84
84
C4
B8
ENDCHAR
STARTCHAR 099
ENCODING 99
SWIDTH 576 0
DWIDTH 8 0
BBX 6 6 1 -9
BITMAP
78
84
80
80
84
78
ENDCHAR
STARTCHAR 100
ENCODING 100
SWIDTH 576 0
DWIDTH 8 0
BBX 6 9 1 -9
BITMAP
04
04
04
74
8C
84
84
8C
74
ENDCHAR
STARTCHAR 101
ENCODING 101
SWIDTH 576 0
DWIDTH 8 0
BBX 6 6 1 -9
BITMAP
78
84
FC
80
80
78
ENDCHAR
STARTCHAR 102
ENCODING 102
SWIDTH 576 0
DWIDTH 8 0
BBX 6 9 1 -9
BITMAP
38
44
40
40
F8
40
40
40
40
ENDCHAR
STARTCHAR 103
ENCODING 103
SWIDTH 576 0
DWIDTH 8 0
BBX 6 8 1 -11
BITMAP
74
88
88
70
80
78
84
78
ENDCHAR
STARTCHAR 104
ENCODING 104
SWIDTH 576 0
DWIDTH 8 0
BBX 6 9 1 -9
BITMAP
80
80
80
B8
C4
84
84
84
84
ENDCHAR
STARTCHAR 105
ENCODING 105
SWIDTH 576 0
DWIDTH 8 0
BBX 5 8 1 -9
BITMAP
20
00
60
20
20
20
20
F8
ENDCHAR
STARTCHAR 106
ENCODING 106
SWIDTH 576 0
DWIDTH 8 0
BBX 5 10 1 -11
BITMAP
08
00
18
08
08
08
08
88
88
70
ENDCHAR
STARTCHAR 107
ENCODING 107
SWIDTH 576 0
DWIDTH 8 0
BBX 6 9 1 -9
BITMAP
80
80
80
88
90
E0
90
88
84
ENDCHAR
STARTCHAR 108
ENCODING 108
SWIDTH 576 0
DWIDTH 8 0
BBX 5 9 1 -9
BITMAP
60
20
20
20
20
20
20
20
F8
ENDCHAR
STARTCHAR 109
ENCODING 109
SWIDTH 576 0
DWIDTH 8 0
BBX 7 6 0 -9
BITMAP
EC
92
92
92
92
82
ENDCHAR
STARTCHAR 110
ENCODING 110
SWIDTH 576 0
DWIDTH 8 0
BBX 6 6 1 -9
BITMAP
B8
C4
84
84
84
84
ENDCHAR
STARTCHAR 111
ENCODING 111
SWIDTH 576 0
DWIDTH 8 0
BBX 6 6 1 -9
BITMAP
78
84
84
84
84
78
ENDCHAR
STARTCHAR 112
ENCODING 112
SWIDTH 576 0
DWIDTH 8 0
BBX 6 8 1 -11
BITMAP
B8
C4
84
C4
B8
80
80
80
ENDCHAR
STARTCHAR 113
ENCODING 113
SWIDTH 576 0
DWIDTH 8 0
BBX 6 8 1 -11
BITMAP
74
8C
84
8C
74
04
04
04
ENDCHAR
STARTCHAR 114
ENCODING 114
SWIDTH 576 0
DWIDTH 8 0
BBX 6 6 1 -9
BITMAP
B8
44
40
40
40
40
ENDCHAR
STARTCHAR 115
ENCODING 115
SWIDTH 576 0
DWIDTH 8 0
BBX 6 6 1 -9
BITMAP
78
84
60
18
84
78
ENDCHAR
STARTCHAR 116
ENCODING 116
SWIDTH 576 0
DWIDTH 8 0
BBX 6 8 1 -9
BITMAP
40
40
F8
40
40
40
44
38
ENDCHAR
STARTCHAR 117
ENCODING 117
SWIDTH 576 0
DWIDTH 8 0
BBX 6 6 1 -9
BITMAP
88
88
88
88
88
74
ENDCHAR
STARTCHAR 118
ENCODING 118
SWIDTH 576 0
DWIDTH 8 0
BBX 5 6 1 -9
BITMAP
88
88
88
50
50
20
ENDCHAR
STARTCHAR 119
ENCODING 119
SWIDTH 576 0
DWIDTH 8 0
BBX 7 6 0 -9
BITMAP
82
82
92
92
AA
44
ENDCHAR
STARTCHAR 120
ENCODING 120
SWIDTH 576 0
DWIDTH 8 0
BBX 6 6 1 -9
BITMAP
84
48
30
30
48
84
ENDCHAR
STARTCHAR 121
ENCODING 121
SWIDTH 576 0
DWIDTH 8 0
BBX 6 8 1 -11
BITMAP
84
84
84
8C
74
04
84
78
ENDCHAR
STARTCHAR 122
ENCODING 122
SWIDTH 576 0
DWIDTH 8 0
BBX 6 6 1 -9
BITMAP
FC
08
10
20
40
FC
ENDCHAR
STARTCHAR 123
ENCODING 123
SWIDTH 576 0
DWIDTH 8 0
BBX 5 11 1 -10
BITMAP
18
20
20
20
60
C0
60
20
20
20
18
ENDCHAR
STARTCHAR 124
ENCODING 124
SWIDTH 576 0
DWIDTH 8 0
BBX 1 10 3 -10
BITMAP
80
80
80
80
80
80
80
80
80
80
ENDCHAR
STARTCHAR 125
ENCODING 125
SWIDTH 576 0
DWIDTH 8 0
BBX 6 13 1 -11
BITMAP
E0
30
10
10
10
18
0C
18
10
10
10
30
E0
ENDCHAR
STARTCHAR 126
ENCODING 126
SWIDTH 576 0
DWIDTH 8 0
BBX 8 7 0 -8
BITMAP
73
DE
8C
00
73
DE
8C
ENDCHAR
STARTCHAR 127
ENCODING 127
SWIDTH 576 0
DWIDTH 8 0
BBX 8 13 0 -11
BITMAP
FF
FF
FF
FF
FF
FF
FF
FF
FF
FF
FF
FF
FF
ENDCHAR
STARTCHAR 128
ENCODING 128
SWIDTH 576 0
DWIDTH 8 0
BBX 8 13 0 -11
BITMAP
7E
C3
BD
80
C9
15
94
15
54
55
15
95
95
ENDCHAR
STARTCHAR 129
ENCODING 129
SWIDTH 576 0
DWIDTH 8 0
BBX 3 13 1 -11
BITMAP
C0
C0
40
C0
C0
C0
C0
E0
C0
C0
C0
40
C0
ENDCHAR
STARTCHAR 130
ENCODING 130
SWIDTH 576 0
DWIDTH 8 0
BBX 7 10 0 -10
BITMAP
C6
82
82
82
82
82
82
C6
7C
38
ENDCHAR
STARTCHAR 131
ENCODING 131
SWIDTH 576 0
DWIDTH 8 0
BBX 7 12 0 -11
BITMAP
38
38
28
10
38
7C
FE
BA
38
7C
10
10
ENDCHAR
STARTCHAR 132
ENCODING 132
SWIDTH 576 0
DWIDTH 8 0
BBX 7 9 0 -9
BITMAP
10
10
54
54
D6
54
54
10
10
ENDCHAR
STARTCHAR 133
ENCODING 133
SWIDTH 576 0
DWIDTH 8 0
BBX 7 12 0 -11
BITMAP
3C
76
3E
EA
BC
EE
BC
56
7C
10
10
10
ENDCHAR
STARTCHAR 134
ENCODING 134
SWIDTH 576 0
DWIDTH 8 0
BBX 8 10 0 -11
BITMAP
02
08
2C
7E
1D
AA
7E
94
28
08
ENDCHAR
STARTCHAR 135
ENCODING 135
SWIDTH 576 0
DWIDTH 8 0
BBX 7 12 0 -11
BITMAP
BA
44
18
DA
70
5E
32
D8
50
10
10
10
ENDCHAR
STARTCHAR 136
ENCODING 136
SWIDTH 576 0
DWIDTH 8 0
BBX 8 13 0 -11
BITMAP
10
AA
51
D2
2C
2D
90
65
22
4C
94
2A
55
ENDCHAR
STARTCHAR 137
ENCODING 137
SWIDTH 576 0
DWIDTH 8 0
BBX 8 13 0 -11
BITMAP
08
81
12
80
24
88
00
91
26
88
30
80
D5
ENDCHAR
STARTCHAR 138
ENCODING 138
SWIDTH 576 0
DWIDTH 8 0
BBX 8 4 0 -7
BITMAP
44
EE
BB
11
ENDCHAR
STARTCHAR 139
ENCODING 139
SWIDTH 576 0
DWIDTH 8 0
BBX 7 11 1 -11
BITMAP
44
AA
02
90
92
10
10
7C
92
82
7C
ENDCHAR
STARTCHAR 140
ENCODING 140
SWIDTH 576 0
DWIDTH 8 0
BBX 8 9 0 -11
BITMAP
06
1E
33
55
FF
B7
D2
AC
FB
ENDCHAR
STARTCHAR 141
ENCODING 141
SWIDTH 576 0
DWIDTH 8 0
BBX 8 13 0 -11
BITMAP
AB
AA
FB
72
33
72
7B
FE
FE
FC
FC
A8
A8
ENDCHAR
STARTCHAR 142
ENCODING 142
SWIDTH 576 0
DWIDTH 8 0
BBX 7 13 0 -11
BITMAP
10
38
7C
FE
7C
BA
D6
EE
EE
EE
6C
2C
18
ENDCHAR
STARTCHAR 143
ENCODING 143
SWIDTH 576 0
DWIDTH 8 0
BBX 8 13 0 -11
BITMAP
81
42
42
24
24
18
08
18
24
24
42
42
81
ENDCHAR
STARTCHAR 144
ENCODING 144
SWIDTH 576 0
DWIDTH 8 0
BBX 8 13 0 -11
BITMAP
81
42
42
24
24
18
08
18
24
24
42
42
81
ENDCHAR
STARTCHAR 145
ENCODING 145
SWIDTH 576 0
DWIDTH 8 0
BBX 8 13 0 -11
BITMAP
DE
FD
B7
FF
F5
DF
7B
EE
FB
5F
FD
B7
FE
ENDCHAR
STARTCHAR 146
ENCODING 146
SWIDTH 576 0
DWIDTH 8 0
BBX 8 11 0 -11
BITMAP
66
FF
FF
99
00
00
66
FF
FF
FF
99
ENDCHAR
STARTCHAR 147
ENCODING 147
SWIDTH 576 0
DWIDTH 8 0
BBX 7 11 0 -10
BITMAP
10
38
6C
D6
BA
EE
BA
D6
6C
38
10
ENDCHAR
STARTCHAR 148
ENCODING 148
SWIDTH 576 0
DWIDTH 8 0
BBX 8 13 0 -11
BITMAP
B6
D3
24
B7
DD
44
DB
EE
11
6A
B3
56
EB
ENDCHAR
STARTCHAR 149
ENCODING 149
SWIDTH 576 0
DWIDTH 8 0
BBX 8 13 0 -11
BITMAP
B6
AD
F5
4B
2A
9B
F5
15
B6
EB
32
D6
BB
ENDCHAR
STARTCHAR 150
ENCODING 150
SWIDTH 576 0
DWIDTH 8 0
BBX 8 13 0 -11
BITMAP
F6
D3
00
87
DD
4F
00
E6
75
00
8D
97
DB
ENDCHAR
STARTCHAR 151
ENCODING 151
SWIDTH 576 0
DWIDTH 8 0
BBX 8 11 0 -9
BITMAP
04
01
04
73
DE
8C
01
04
73
DE
8C
ENDCHAR
STARTCHAR 152
ENCODING 152
SWIDTH 576 0
DWIDTH 8 0
BBX 8 11 0 -10
BITMAP
01
03
03
06
0C
08
18
B0
20
50
80
ENDCHAR
STARTCHAR 153
ENCODING 153
SWIDTH 576 0
DWIDTH 8 0
BBX 7 12 0 -11
BITMAP
C0
F8
7C
46
46
7E
7C
46
46
7E
F8
C0
ENDCHAR
STARTCHAR 154
ENCODING 154
SWIDTH 576 0
DWIDTH 8 0
BBX 7 11 1 -10
BITMAP
02
3E
7E
F2
E8
F0
C0
C0
C0
7E
3C
ENDCHAR
STARTCHAR 155
ENCODING 155
SWIDTH 576 0
DWIDTH 8 0
BBX 7 11 0 -10
BITMAP
38
3C
26
22
62
E2
62
22
26
3C
38
ENDCHAR
STARTCHAR 156
ENCODING 156
SWIDTH 576 0
DWIDTH 8 0
BBX 7 11 0 -10
BITMAP
F8
7C
26
22
22
22
22
22
26
7C
F8
ENDCHAR
STARTCHAR 157
ENCODING 157
SWIDTH 576 0
DWIDTH 8 0
BBX 8 13 0 -11
BITMAP
81
42
42
24
24
18
08
18
24
24
42
42
81
ENDCHAR
STARTCHAR 158
ENCODING 158
SWIDTH 576 0
DWIDTH 8 0
BBX 7 13 0 -11
BITMAP
10
30
20
60
42
FE
84
0C
08
18
10
70
60
ENDCHAR
STARTCHAR 159
ENCODING 159
SWIDTH 576 0
DWIDTH 8 0
BBX 8 12 0 -11
BITMAP
07
8E
58
53
56
74
3D
AF
DD
72
6B
ED
ENDCHAR
STARTCHAR 160
ENCODING 160
SWIDTH 576 0
DWIDTH 8 0
BBX 8 13 0 -11
BITMAP
38
38
B9
00
BB
BB
38
00
6C
6C
00
E6
E6
ENDCHAR
STARTCHAR 161
ENCODING 161
SWIDTH 576 0
DWIDTH 8 0
BBX 8 13 0 -11
BITMAP
18
99
BD
7E
C7
EF
ED
EB
7B
38
38
6C
EE
ENDCHAR
STARTCHAR 162
ENCODING 162
SWIDTH 576 0
DWIDTH 8 0
BBX 8 13 0 -11
BITMAP
0E
1E
6E
C1
CD
CD
7B
7E
3E
E7
E7
66
C3
ENDCHAR
STARTCHAR 163
ENCODING 163
SWIDTH 576 0
DWIDTH 8 0
BBX 8 12 0 -11
BITMAP
05
07
02
03
03
79
FF
DF
FE
9C
38
60
ENDCHAR
STARTCHAR 164
ENCODING 164
SWIDTH 576 0
DWIDTH 8 0
BBX 8 13 0 -11
BITMAP
C0
F8
D4
9C
18
64
FE
8B
DC
3C
7E
7E
CF
ENDCHAR
STARTCHAR 165
ENCODING 165
SWIDTH 576 0
DWIDTH 8 0
BBX 8 13 0 -11
BITMAP
C3
99
A5
99
C3
FF
E7
C3
99
81
BD
BD
FF
ENDCHAR
STARTCHAR 166
ENCODING 166
SWIDTH 576 0
DWIDTH 8 0
BBX 8 13 0 -11
BITMAP
09
0F
1F
36
37
2D
3B
3F
F0
7C
3E
3F
02
ENDCHAR
STARTCHAR 167
ENCODING 167
SWIDTH 576 0
DWIDTH 8 0
BBX 8 10 0 -11
BITMAP
50
70
D2
71
7F
7F
7F
55
55
55
ENDCHAR
STARTCHAR 168
ENCODING 168
SWIDTH 576 0
DWIDTH 8 0
BBX 8 13 0 -11
BITMAP
70
39
16
16
DD
5D
7B
76
3C
0C
6C
FF
7B
ENDCHAR
STARTCHAR 169
ENCODING 169
SWIDTH 576 0
DWIDTH 8 0
BBX 8 13 0 -11
BITMAP
02
07
2F
6F
E7
32
38
7C
DE
1E
5F
81
FF
ENDCHAR
STARTCHAR 170
ENCODING 170
SWIDTH 576 0
DWIDTH 8 0
BBX 8 13 0 -11
BITMAP
18
19
66
56
38
54
42
B9
2C
24
24
2C
38
ENDCHAR
STARTCHAR 171
ENCODING 171
SWIDTH 576 0
DWIDTH 8 0
BBX 8 13 0 -11
BITMAP
40
84
49
6A
FE
67
42
5A
C3
66
3E
49
92
ENDCHAR
STARTCHAR 172
ENCODING 172
SWIDTH 576 0
DWIDTH 8 0
BBX 8 12 0 -11
BITMAP
1E
3D
67
27
3F
2E
2E
1C
58
70
C0
80
ENDCHAR
STARTCHAR 173
ENCODING 173
SWIDTH 576 0
DWIDTH 8 0
BBX 8 8 0 -10
BITMAP
51
71
51
7F
7F
7F
F9
A2
ENDCHAR
STARTCHAR 174
ENCODING 174
SWIDTH 576 0
DWIDTH 8 0
BBX 8 11 0 -11
BITMAP
0E
11
2B
41
AD
0D
82
82
E8
60
C0
ENDCHAR
STARTCHAR 175
ENCODING 175
SWIDTH 576 0
DWIDTH 8 0
BBX 7 10 1 -10
BITMAP
60
52
62
E4
FC
C8
C0
E0
A0
A0
ENDCHAR
STARTCHAR 176
ENCODING 176
SWIDTH 576 0
DWIDTH 8 0
BBX 5 11 1 -11
BITMAP
60
A0
60
70
38
78
B0
B8
28
28
28
ENDCHAR
STARTCHAR 177
ENCODING 177
SWIDTH 576 0
DWIDTH 8 0
BBX 8 13 0 -11
BITMAP
07
07
01
1D
15
15
75
C7
81
C3
FE
36
77
ENDCHAR
STARTCHAR 178
ENCODING 178
SWIDTH 576 0
DWIDTH 8 0
BBX 8 12 0 -11
BITMAP
59
31
3B
5A
74
78
74
78
78
48
C8
8C
ENDCHAR
STARTCHAR 179
ENCODING 179
SWIDTH 576 0
DWIDTH 8 0
BBX 8 13 0 -11
BITMAP
81
81
C3
66
3C
18
E7
FF
BD
BD
24
48
48
ENDCHAR
STARTCHAR 180
ENCODING 180
SWIDTH 576 0
DWIDTH 8 0
BBX 8 11 0 -10
BITMAP
18
00
03
37
7D
F7
AE
9F
FC
7C
64
ENDCHAR
STARTCHAR 181
ENCODING 181
SWIDTH 576 0
DWIDTH 8 0
BBX 8 11 0 -10
BITMAP
18
7E
EF
60
7F
3F
01
FF
BF
F0
E0
ENDCHAR
STARTCHAR 182
ENCODING 182
SWIDTH 576 0
DWIDTH 8 0
BBX 8 13 0 -11
BITMAP
02
77
52
65
32
82
16
6A
02
7A
03
49
84
ENDCHAR
STARTCHAR 183
ENCODING 183
SWIDTH 576 0
DWIDTH 8 0
BBX 8 13 0 -11
BITMAP
13
A4
79
2E
7D
B8
18
FF
9D
3C
7F
FF
66
ENDCHAR
STARTCHAR 184
ENCODING 184
SWIDTH 576 0
DWIDTH 8 0
BBX 8 11 0 -9
BITMAP
90
01
92
7C
55
EE
55
FC
52
81
10
ENDCHAR
STARTCHAR 185
ENCODING 185
SWIDTH 576 0
DWIDTH 8 0
BBX 8 12 0 -11
BITMAP
60
90
93
65
9A
E4
D8
48
A4
58
48
CC
ENDCHAR
STARTCHAR 186
ENCODING 186
SWIDTH 576 0
DWIDTH 8 0
BBX 8 12 0 -11
BITMAP
1B
3B
78
C9
89
FD
7E
79
F9
79
79
F9
ENDCHAR
STARTCHAR 187
ENCODING 187
SWIDTH 576 0
DWIDTH 8 0
BBX 8 12 0 -11
BITMAP
04
0E
5E
92
9F
BF
5D
1E
3E
7E
62
42
ENDCHAR
STARTCHAR 188
ENCODING 188
SWIDTH 576 0
DWIDTH 8 0
BBX 7 12 0 -11
BITMAP
98
40
38
7C
FE
BA
82
38
7C
6C
6C
6E
ENDCHAR
STARTCHAR 189
ENCODING 189
SWIDTH 576 0
DWIDTH 8 0
BBX 8 13 0 -11
BITMAP
0A
5E
75
F7
C3
85
65
C5
D6
D2
BB
FE
10
ENDCHAR
STARTCHAR 190
ENCODING 190
SWIDTH 576 0
DWIDTH 8 0
BBX 8 13 0 -11
BITMAP
54
FE
67
E2
63
E6
7E
FC
60
F0
60
F0
40
ENDCHAR
STARTCHAR 191
ENCODING 191
SWIDTH 576 0
DWIDTH 8 0
BBX 8 12 0 -11
BITMAP
03
0F
06
3F
7C
FE
FE
FF
F8
FC
FE
40
ENDCHAR
STARTCHAR 192
ENCODING 192
SWIDTH 576 0
DWIDTH 8 0
BBX 8 12 0 -11
BITMAP
18
1E
3A
18
9E
BF
F9
38
78
50
48
24
ENDCHAR
STARTCHAR 193
ENCODING 193
SWIDTH 576 0
DWIDTH 8 0
BBX 8 13 0 -11
BITMAP
3C
42
81
9D
A5
A5
AD
A5
9D
E2
3F
01
01
ENDCHAR
STARTCHAR 194
ENCODING 194
SWIDTH 576 0
DWIDTH 8 0
BBX 8 8 0 -11
BITMAP
10
3C
5E
FF
BF
01
02
04
ENDCHAR
STARTCHAR 195
ENCODING 195
SWIDTH 576 0
DWIDTH 8 0
BBX 8 13 0 -11
BITMAP
08
06
33
79
DD
FF
6F
CF
1F
2F
0B
09
09
ENDCHAR
STARTCHAR 196
ENCODING 196
SWIDTH 576 0
DWIDTH 8 0
BBX 8 13 0 -11
BITMAP
18
7C
DC
FE
1E
FF
3F
7F
DF
9E
3E
3E
76
ENDCHAR
STARTCHAR 197
ENCODING 197
SWIDTH 576 0
DWIDTH 8 0
BBX 8 13 0 -11
BITMAP
38
54
7C
28
39
02
91
AA
54
28
10
28
44
ENDCHAR
STARTCHAR 198
ENCODING 198
SWIDTH 576 0
DWIDTH 8 0
BBX 8 11 0 -10
BITMAP
99
BD
3C
BD
7E
3C
DB
18
24
42
81
ENDCHAR
STARTCHAR 199
ENCODING 199
SWIDTH 576 0
DWIDTH 8 0
BBX 8 11 0 -10
BITMAP
18
18
7E
C7
ED
A9
AA
38
38
6C
EE
ENDCHAR
STARTCHAR 200
ENCODING 200
SWIDTH 576 0
DWIDTH 8 0
BBX 8 11 0 -11
BITMAP
24
24
7E
EB
B7
C3
C9
E3
E3
6B
3E
ENDCHAR
STARTCHAR 201
ENCODING 201
SWIDTH 576 0
DWIDTH 8 0
BBX 8 13 0 -11
BITMAP
42
42
66
66
C2
63
23
A6
65
3C
18
24
22
ENDCHAR
STARTCHAR 202
ENCODING 202
SWIDTH 576 0
DWIDTH 8 0
BBX 8 12 0 -11
BITMAP
14
1C
1F
DE
51
7C
7E
32
0B
10
10
20
ENDCHAR
STARTCHAR 203
ENCODING 203
SWIDTH 576 0
DWIDTH 8 0
BBX 8 13 0 -11
BITMAP
81
99
DB
FF
BD
BD
99
DB
DB
42
66
24
3C
ENDCHAR
STARTCHAR 204
ENCODING 204
SWIDTH 576 0
DWIDTH 8 0
BBX 8 13 0 -11
BITMAP
1C
3C
64
44
7E
FF
BD
BD
7C
7E
7E
FE
1C
ENDCHAR
STARTCHAR 205
ENCODING 205
SWIDTH 576 0
DWIDTH 8 0
BBX 8 13 0 -11
BITMAP
1C
3C
64
46
7F
FF
81
EB
5C
49
6B
EB
EB
ENDCHAR
STARTCHAR 206
ENCODING 206
SWIDTH 576 0
DWIDTH 8 0
BBX 8 13 0 -11
BITMAP
F0
5C
FF
DD
EB
77
77
D6
96
3E
3E
76
76
ENDCHAR
STARTCHAR 207
ENCODING 207
SWIDTH 576 0
DWIDTH 8 0
BBX 8 11 0 -10
BITMAP
20
38
0C
FE
1F
FF
3F
6F
DB
10
10
ENDCHAR
STARTCHAR 208
ENCODING 208
SWIDTH 576 0
DWIDTH 8 0
BBX 8 13 0 -11
BITMAP
38
29
B1
9A
40
08
34
00
3C
00
26
14
66
ENDCHAR
STARTCHAR 209
ENCODING 209
SWIDTH 576 0
DWIDTH 8 0
BBX 8 11 0 -10
BITMAP
FC
7E
27
23
E3
63
23
23
E7
7E
3C
ENDCHAR
STARTCHAR 210
ENCODING 210
SWIDTH 576 0
DWIDTH 8 0
BBX 8 12 0 -10
BITMAP
F8
7C
3E
E7
63
23
E3
63
23
E7
7E
3C
ENDCHAR
STARTCHAR 211
ENCODING 211
SWIDTH 576 0
DWIDTH 8 0
BBX 7 12 0 -11
BITMAP
F8
4C
46
6A
42
5A
42
46
4C
78
54
54
ENDCHAR
STARTCHAR 212
ENCODING 212
SWIDTH 576 0
DWIDTH 8 0
BBX 8 12 0 -11
BITMAP
FC
66
63
75
61
6D
6D
63
66
FC
2A
2A
ENDCHAR
STARTCHAR 213
ENCODING 213
SWIDTH 576 0
DWIDTH 8 0
BBX 8 11 0 -10
BITMAP
FC
46
43
49
49
C9
5D
49
43
7E
FC
ENDCHAR
STARTCHAR 214
ENCODING 214
SWIDTH 576 0
DWIDTH 8 0
BBX 7 11 0 -10
BITMAP
18
3C
66
42
F6
DC
C8
42
7C
38
10
ENDCHAR
STARTCHAR 215
ENCODING 215
SWIDTH 576 0
DWIDTH 8 0
BBX 7 13 1 -11
BITMAP
54
D6
FE
C0
C0
C8
FC
C8
C0
C0
FE
D6
54
ENDCHAR
STARTCHAR 216
ENCODING 216
SWIDTH 576 0
DWIDTH 8 0
BBX 8 12 0 -11
BITMAP
08
1C
36
62
C3
66
3C
1E
34
24
2C
18
ENDCHAR
STARTCHAR 217
ENCODING 217
SWIDTH 576 0
DWIDTH 8 0
BBX 7 10 0 -9
BITMAP
38
7C
66
C2
C0
C8
DC
C6
6E
7C
ENDCHAR
STARTCHAR 218
ENCODING 218
SWIDTH 576 0
DWIDTH 8 0
BBX 7 9 0 -10
BITMAP
40
C0
44
40
70
78
48
4A
CE
ENDCHAR
STARTCHAR 219
ENCODING 219
SWIDTH 576 0
DWIDTH 8 0
BBX 7 11 0 -10
BITMAP
04
4E
CC
46
4E
44
70
78
48
4A
EE
ENDCHAR
STARTCHAR 220
ENCODING 220
SWIDTH 576 0
DWIDTH 8 0
BBX 7 12 0 -11
BITMAP
62
C6
CE
42
46
7E
C6
42
42
C6
CE
42
ENDCHAR
STARTCHAR 221
ENCODING 221
SWIDTH 576 0
DWIDTH 8 0
BBX 7 11 0 -10
BITMAP
06
06
00
04
1E
0C
0C
86
CC
7C
38
ENDCHAR
STARTCHAR 222
ENCODING 222
SWIDTH 576 0
DWIDTH 8 0
BBX 7 11 0 -10
BITMAP
0E
06
06
06
06
06
E6
C6
86
FE
7C
ENDCHAR
STARTCHAR 223
ENCODING 223
SWIDTH 576 0
DWIDTH 8 0
BBX 6 11 1 -10
BITMAP
C0
40
C0
C0
40
C0
C0
44
FC
D4
FC
ENDCHAR
STARTCHAR 224
ENCODING 224
SWIDTH 576 0
DWIDTH 8 0
BBX 6 11 1 -10
BITMAP
E0
C0
C0
C0
C0
C0
C4
CC
FC
FC
FC
ENDCHAR
STARTCHAR 225
ENCODING 225
SWIDTH 576 0
DWIDTH 8 0
BBX 7 8 0 -10
BITMAP
FC
7E
22
26
3C
20
20
20
ENDCHAR
STARTCHAR 226
ENCODING 226
SWIDTH 576 0
DWIDTH 8 0
BBX 7 8 0 -10
BITMAP
FC
7E
22
E6
7C
20
20
20
ENDCHAR
STARTCHAR 227
ENCODING 227
SWIDTH 576 0
DWIDTH 8 0
BBX 7 9 0 -10
BITMAP
FC
7E
22
E6
7C
20
E0
60
20
ENDCHAR
STARTCHAR 228
ENCODING 228
SWIDTH 576 0
DWIDTH 8 0
BBX 7 11 0 -10
BITMAP
92
54
00
FC
FE
62
66
7C
60
60
60
ENDCHAR
STARTCHAR 229
ENCODING 229
SWIDTH 576 0
DWIDTH 8 0
BBX 7 12 0 -10
BITMAP
02
64
98
00
FC
FE
62
66
7C
60
60
60
ENDCHAR
STARTCHAR 230
ENCODING 230
SWIDTH 576 0
DWIDTH 8 0
BBX 7 11 0 -10
BITMAP
7C
00
00
FC
7E
22
26
3C
20
20
20
ENDCHAR
STARTCHAR 231
ENCODING 231
SWIDTH 576 0
DWIDTH 8 0
BBX 7 11 0 -10
BITMAP
7C
00
00
FC
7E
22
E6
7C
20
20
20
ENDCHAR
STARTCHAR 232
ENCODING 232
SWIDTH 576 0
DWIDTH 8 0
BBX 8 11 0 -10
BITMAP
FC
7E
67
63
63
7E
7C
60
60
60
E0
ENDCHAR
STARTCHAR 233
ENCODING 233
SWIDTH 576 0
DWIDTH 8 0
BBX 6 12 1 -11
BITMAP
08
38
78
D8
88
88
F8
68
08
08
0C
08
ENDCHAR
STARTCHAR 234
ENCODING 234
SWIDTH 576 0
DWIDTH 8 0
BBX 7 11 0 -11
BITMAP
78
FC
CE
86
82
82
92
DA
7E
3C
06
ENDCHAR
STARTCHAR 235
ENCODING 235
SWIDTH 576 0
DWIDTH 8 0
BBX 7 13 0 -11
BITMAP
10
38
7C
FC
CE
86
82
82
92
DA
7E
3C
06
ENDCHAR
STARTCHAR 236
ENCODING 236
SWIDTH 576 0
DWIDTH 8 0
BBX 7 12 0 -11
BITMAP
B0
7C
6E
46
46
4E
7C
78
6C
44
46
42
ENDCHAR
STARTCHAR 237
ENCODING 237
SWIDTH 576 0
DWIDTH 8 0
BBX 7 9 1 -10
BITMAP
54
7C
C6
C0
78
0C
8C
F8
50
ENDCHAR
STARTCHAR 238
ENCODING 238
SWIDTH 576 0
DWIDTH 8 0
BBX 7 12 1 -11
BITMAP
38
7C
E6
C2
C0
70
38
0C
84
CC
FC
78
ENDCHAR
STARTCHAR 239
ENCODING 239
SWIDTH 576 0
DWIDTH 8 0
BBX 7 9 0 -10
BITMAP
44
44
C6
82
82
82
C6
FE
7C
ENDCHAR
STARTCHAR 240
ENCODING 240
SWIDTH 576 0
DWIDTH 8 0
BBX 7 11 0 -10
BITMAP
82
C2
E2
82
82
82
82
82
C6
FE
7C
ENDCHAR
STARTCHAR 241
ENCODING 241
SWIDTH 576 0
DWIDTH 8 0
BBX 7 12 0 -11
BITMAP
82
C6
EE
82
82
82
82
82
C6
FE
7C
38
ENDCHAR
STARTCHAR 242
ENCODING 242
SWIDTH 576 0
DWIDTH 8 0
BBX 7 12 0 -11
BITMAP
82
C6
EE
82
92
AA
92
82
C6
FE
7C
38
ENDCHAR
STARTCHAR 243
ENCODING 243
SWIDTH 576 0
DWIDTH 8 0
BBX 7 7 0 -10
BITMAP
82
C2
46
64
2C
38
10
ENDCHAR
STARTCHAR 244
ENCODING 244
SWIDTH 576 0
DWIDTH 8 0
BBX 7 10 0 -10
BITMAP
A4
4A
00
82
C2
46
64
2C
38
10
ENDCHAR
STARTCHAR 245
ENCODING 245
SWIDTH 576 0
DWIDTH 8 0
BBX 7 10 0 -10
BITMAP
7C
7C
00
82
C2
46
64
2C
38
10
ENDCHAR
STARTCHAR 246
ENCODING 246
SWIDTH 576 0
DWIDTH 8 0
BBX 6 9 1 -10
BITMAP
40
C8
84
84
A4
A4
F4
DC
88
ENDCHAR
STARTCHAR 247
ENCODING 247
SWIDTH 576 0
DWIDTH 8 0
BBX 7 12 0 -11
BITMAP
82
80
84
82
84
C2
D2
D6
D6
FE
EE
44
ENDCHAR
STARTCHAR 248
ENCODING 248
SWIDTH 576 0
DWIDTH 8 0
BBX 7 12 0 -11
BITMAP
80
B2
82
9A
82
B2
82
92
D6
FE
EE
44
ENDCHAR
STARTCHAR 249
ENCODING 249
SWIDTH 576 0
DWIDTH 8 0
BBX 7 13 0 -11
BITMAP
82
C6
82
82
82
82
C6
D6
D6
D6
FE
EE
44
ENDCHAR
STARTCHAR 250
ENCODING 250
SWIDTH 576 0
DWIDTH 8 0
BBX 7 7 0 -10
BITMAP
7E
C6
8C
18
30
62
FE
ENDCHAR
STARTCHAR 251
ENCODING 251
SWIDTH 576 0
DWIDTH 8 0
BBX 7 11 0 -10
BITMAP
FE
82
82
06
0C
18
30
60
C2
C2
FE
ENDCHAR
STARTCHAR 252
ENCODING 252
SWIDTH 576 0
DWIDTH 8 0
BBX 7 11 0 -10
BITMAP
7E
42
42
E6
4C
18
30
60
40
7E
7E
ENDCHAR
STARTCHAR 253
ENCODING 253
SWIDTH 576 0
DWIDTH 8 0
BBX 7 12 0 -11
BITMAP
54
AA
FE
04
08
10
20
40
80
FE
54
AA
ENDCHAR
STARTCHAR 254
ENCODING 254
SWIDTH 576 0
DWIDTH 8 0
BBX 8 11 0 -10
BITMAP
FF
7F
07
0E
1C
38
70
E0
C0
FE
FF
ENDCHAR
STARTCHAR 255
ENCODING 255
SWIDTH 576 0
DWIDTH 8 0
BBX 8 12 0 -11
BITMAP
44
EE
BB
03
0E
18
30
60
40
DC
F6
43
ENDCHAR
ENDFONT
